<svg version="1.1" id="Layer_1" xmlns="http://www.w3.org/2000/svg" xmlns:xlink="http://www.w3.org/1999/xlink" x="0px" y="0px"
	 width="100%" viewBox="0 0 531 156" enable-background="new 0 0 531 156" xml:space="preserve">
<path fill="#FFFEFD" opacity="1.000000" stroke="none" 
	d="
M341.000000,157.000000 
	C227.374512,157.000000 114.249016,157.000000 1.061760,157.000000 
	C1.061760,105.060158 1.061760,53.120216 1.061760,1.090138 
	C177.999985,1.090138 355.000000,1.090138 531.965210,1.090138 
	C531.965210,53.084244 531.965210,105.042137 531.965210,157.000000 
	C468.453613,157.000000 404.976807,157.000000 341.000000,157.000000 
M115.606277,150.619232 
	C114.826172,153.453140 115.966385,154.640015 118.836548,154.615234 
	C122.000656,154.587936 125.180420,154.576706 128.327728,154.851746 
	C132.317398,155.200378 134.190186,153.111832 134.946838,149.606720 
	C135.402634,147.495270 135.805679,145.347290 135.946411,143.197006 
	C136.925217,128.240738 137.938324,113.285316 138.725403,98.318314 
	C139.471710,84.127037 136.560883,87.148766 151.098526,85.133484 
	C157.777435,84.207626 159.307251,81.734871 155.618332,75.999191 
	C151.388535,69.422531 146.968964,62.947098 142.270966,56.699032 
	C138.547882,51.747581 136.348923,46.530476 135.853363,40.271954 
	C135.236847,32.486271 134.150497,24.699612 132.593994,17.050323 
	C132.140091,14.819671 129.728546,11.989145 127.614326,11.314854 
	C123.900887,10.130517 119.727020,10.365366 115.741432,10.066733 
	C112.706161,9.839307 111.045555,11.327447 110.730431,14.337548 
	C110.467728,16.846907 110.213638,19.357168 109.913292,22.279997 
	C102.794334,17.228088 96.232582,12.720605 89.839233,7.985743 
	C85.042015,4.432961 80.745995,4.568940 75.695915,7.893250 
	C50.124706,24.725962 29.181532,46.001610 12.542618,71.694305 
	C4.687300,83.823959 7.734639,84.633575 19.547972,85.884224 
	C26.782219,86.650093 26.523197,86.578552 26.888563,94.016998 
	C27.794971,112.470428 28.975922,130.910339 30.031927,149.356506 
	C30.202488,152.335815 31.260128,154.768631 34.580830,154.848495 
	C41.511395,155.015167 48.448769,154.898941 55.736347,154.898941 
	C55.116432,145.062378 54.635395,136.625656 53.985569,128.201981 
	C53.909897,127.221069 53.116837,126.007996 52.288940,125.419037 
	C46.694073,121.438942 44.859207,115.767143 44.993595,109.303650 
	C45.294895,94.812401 45.663177,80.321014 46.244995,65.839363 
	C46.306950,64.297295 47.965057,62.819347 48.882698,61.311653 
	C49.640480,62.891415 51.068031,64.480576 51.046013,66.049393 
	C50.915134,75.376228 50.412346,84.697212 50.116699,94.022766 
	C50.022915,96.980896 49.505775,100.741600 53.834534,100.846893 
	C58.204044,100.953156 57.683758,97.128372 57.839333,94.198097 
	C57.936417,92.369507 57.827179,90.530441 57.908653,88.700447 
	C58.256821,80.880386 58.515854,73.052025 59.132809,65.252426 
	C59.239319,63.905941 60.921120,62.684059 61.875275,61.404621 
	C62.581558,62.696751 63.747475,63.939976 63.891308,65.291946 
	C64.134827,67.580948 63.684818,69.937134 63.610519,72.267761 
	C63.361053,80.092781 62.937832,87.922897 63.083488,95.741707 
	C63.116318,97.504120 64.906807,100.390297 66.367271,100.736183 
	C69.723335,101.530983 70.180710,98.443367 70.440094,95.879768 
	C70.590652,94.391762 70.538574,92.884201 70.607506,91.386810 
	C70.998100,82.901245 71.279770,74.407455 71.900352,65.938583 
	C72.015305,64.369865 73.509697,62.902225 74.367424,61.387936 
	C75.197937,62.947769 76.763031,64.516327 76.744614,66.066078 
	C76.572487,80.558395 76.152962,95.048164 75.752602,109.537216 
	C75.580826,115.753670 74.132225,121.398170 68.593857,125.249191 
	C67.804497,125.798058 67.127930,127.196678 67.179680,128.160080 
	C67.640007,136.728943 68.276062,145.288391 68.855415,153.779053 
	C80.374992,153.779053 91.123940,153.779053 102.288246,153.779053 
	C102.962738,145.403259 103.612198,137.338364 104.267448,129.201614 
	C101.622421,128.754303 99.665222,128.203751 97.690781,128.132782 
	C92.805153,127.957161 90.709671,125.647568 90.475449,120.693413 
	C89.878159,108.059128 91.093086,95.610260 95.641075,83.868958 
	C98.919167,75.406090 103.522003,67.422791 107.984421,59.478615 
	C108.957771,57.745815 111.872726,56.212822 113.846085,56.268467 
	C115.019745,56.301563 116.568710,59.487560 117.109138,61.483448 
	C117.837845,64.174629 118.052589,67.092369 117.979599,69.899673 
	C117.287392,96.525032 116.487335,123.147575 115.606277,150.619232 
M261.747986,56.961655 
	C258.073212,56.364929 255.666122,57.661083 253.640442,61.002213 
	C250.108521,66.827728 246.003571,72.307762 242.089737,77.898254 
	C241.242310,79.108742 240.187424,80.174004 239.228104,81.306152 
	C240.496368,74.308159 242.552139,67.911751 244.666870,61.534893 
	C245.718826,58.362831 244.928406,56.822063 241.311005,56.924595 
	C236.001129,57.075100 230.683823,56.963371 225.262436,56.963371 
	C220.244781,73.734978 215.310760,90.227036 210.530716,106.204430 
	C207.366165,101.235931 204.585251,96.597145 201.517151,92.156761 
	C199.728241,89.567719 197.263672,87.444435 195.484085,84.850235 
	C192.024673,79.807274 194.715027,73.511162 200.793243,72.954803 
	C203.779953,72.681412 206.889099,74.155128 209.966797,74.289673 
	C211.456894,74.354820 213.931854,73.527138 214.357971,72.462257 
	C216.000244,68.358170 216.995499,63.995167 218.199753,59.839710 
	C203.528442,51.538261 183.579117,57.319885 174.842697,72.056610 
	C169.571930,80.947395 169.892731,88.906662 176.081818,97.158882 
	C178.374969,100.216492 181.108948,102.939667 183.488037,105.937469 
	C187.800858,111.371849 186.158676,117.489815 179.348587,118.876358 
	C175.399841,119.680328 170.999725,118.081909 166.787430,117.872200 
	C165.197708,117.793053 162.472946,118.160721 162.133835,119.042877 
	C160.316681,123.769997 159.089218,128.723801 157.574127,133.885071 
	C175.747910,140.556717 191.442154,138.797821 204.817673,124.289497 
	C204.623306,126.503853 204.121048,128.489349 203.559357,130.457901 
	C201.922363,136.194901 202.274582,136.664886 208.402435,136.694458 
	C211.567368,136.709717 214.763580,136.419189 217.889435,136.769028 
	C221.646820,137.189545 223.146744,135.580872 224.010345,132.128571 
	C225.600220,125.772987 226.935455,119.193184 232.696732,114.334961 
	C233.873230,120.340019 235.118256,125.972313 236.038300,131.657196 
	C236.605194,135.160065 237.959900,136.795792 241.858475,136.700043 
	C252.180191,136.446594 262.514954,136.482391 272.838531,136.694336 
	C275.946106,136.758118 277.165741,135.618805 277.967346,132.794540 
	C281.552551,120.163124 285.318390,107.582901 289.031372,94.987839 
	C292.227478,84.146286 295.355774,73.283600 298.688202,62.483986 
	C299.980469,58.296116 298.964081,56.640411 294.416718,56.898335 
	C289.462921,57.179314 284.480835,56.962147 279.462769,56.962147 
	C272.176056,81.500916 265.011200,105.629303 257.412170,131.219803 
	C254.654282,119.001038 252.107513,108.336655 249.962784,97.592026 
	C249.614975,95.849556 250.613785,93.440735 251.732513,91.867996 
	C258.679596,82.101746 265.865601,72.505821 272.898743,62.800049 
	C273.989746,61.294464 274.702881,59.515064 276.074585,56.961643 
	C270.886292,56.961643 266.784302,56.961643 261.747986,56.961655 
M351.084076,68.631371 
	C347.372772,60.416935 340.961670,56.741108 332.011322,56.926846 
	C323.854797,57.096107 315.687317,57.127243 307.533783,56.897007 
	C303.038086,56.770058 302.832520,59.204632 303.077087,62.587994 
	C303.294983,65.601982 303.825867,68.836533 303.036682,71.641167 
	C297.410889,91.634834 291.554291,111.564896 285.586517,131.459808 
	C284.436615,135.293137 285.326324,136.548325 289.293030,136.668716 
	C304.033417,137.116150 304.029694,137.200500 308.162567,123.176682 
	C308.350494,122.539070 308.410706,121.715828 308.843170,121.326164 
	C310.111481,120.183296 311.436859,118.529961 312.921753,118.311165 
	C317.010468,117.708733 321.318298,118.304543 325.315155,117.416687 
	C343.590637,113.356987 356.889709,88.581100 351.084076,68.631371 
M426.863495,131.386627 
	C426.486359,132.926361 426.109222,134.466110 425.721252,136.050064 
	C434.094269,137.386597 434.095795,137.387039 436.242737,130.079071 
	C436.945709,127.686172 437.632812,125.288582 438.337585,122.896210 
	C440.398926,115.898804 441.369843,115.403336 448.972015,117.604721 
	C447.209045,123.721924 445.444153,129.845917 443.657898,136.043900 
	C452.202606,137.348175 452.199341,137.347198 454.363892,130.057938 
	C456.493744,122.885651 458.658813,115.723709 460.756592,108.542099 
	C462.462341,102.702606 464.091461,96.840721 465.758606,90.974556 
	C457.839294,89.102844 457.234741,89.408691 455.299316,95.920967 
	C454.636230,98.152214 454.003601,100.392532 453.339844,102.623573 
	C451.156555,109.962166 450.976196,110.058296 442.774750,108.203773 
	C444.348450,102.408669 445.922180,96.613480 447.518890,90.733597 
	C439.029053,89.681969 439.036194,89.684059 437.010315,96.597061 
	C433.690582,107.925179 430.360565,119.250267 426.863495,131.386627 
M359.080627,96.531799 
	C355.274200,109.649879 351.467773,122.767967 347.530457,136.337097 
	C357.631042,136.803558 366.986786,138.010239 373.984650,130.105331 
	C381.005219,122.174828 384.169617,112.637505 383.895569,102.145050 
	C383.691681,94.336693 378.923401,90.205994 370.980865,90.108154 
	C369.651306,90.091774 368.285461,90.303352 366.997986,90.069931 
	C362.352722,89.227737 359.767883,91.012260 359.080627,96.531799 
M467.931335,107.332382 
	C465.159576,116.824646 462.387787,126.316910 459.373444,136.640015 
	C465.022125,136.640015 469.786011,136.642395 474.549896,136.639435 
	C481.136902,136.635345 481.529785,136.228012 481.656158,128.932999 
	C478.211121,128.932999 474.766449,128.932999 470.661957,128.932999 
	C472.021301,124.558716 473.214783,120.718208 474.345032,117.081245 
	C484.973602,116.704613 484.973602,116.704613 484.863770,109.303879 
	C482.298706,109.139969 479.712555,108.974709 476.528076,108.771217 
	C477.737274,105.127777 477.890045,100.355080 480.136932,98.963348 
	C483.102814,97.126289 487.711029,97.940727 491.815796,97.598480 
	C492.370697,95.375809 492.915863,93.192245 493.675018,90.151543 
	C487.568115,90.151543 482.143219,90.298264 476.731873,90.090965 
	C473.936829,89.983887 472.540649,90.783325 471.874542,93.640480 
	C470.858795,97.997208 469.377197,102.245323 467.931335,107.332382 
M417.283234,90.499107 
	C404.417694,96.203568 402.004517,105.618675 410.626587,116.455872 
	C411.247345,117.236115 411.905670,117.997696 412.432922,118.839149 
	C415.265106,123.358910 412.784027,128.563171 407.412750,128.937347 
	C404.857361,129.115372 402.246399,128.495392 399.312988,128.202164 
	C398.583801,130.675232 397.867035,133.106125 396.934845,136.267548 
	C400.699860,136.621811 403.799713,137.220108 406.882507,137.142334 
	C414.217957,136.957291 419.402222,133.163605 422.628082,126.705986 
	C425.727783,120.500946 423.886505,115.119469 419.564789,110.232582 
	C418.795898,109.363113 417.742981,108.479774 417.516510,107.449928 
	C417.019897,105.191795 415.943909,102.016472 416.982666,100.716881 
	C418.439789,98.893852 421.537720,98.188530 424.068390,97.499718 
	C425.319275,97.159248 426.871490,97.925964 428.604492,98.251236 
	C429.299103,95.698112 429.883362,93.550697 430.791016,90.214607 
	C426.033295,90.214607 422.023407,90.214607 417.283234,90.499107 
M488.379272,128.864441 
	C487.766296,131.055161 487.153320,133.245895 486.557922,135.373779 
	C495.169342,139.216507 504.643555,136.995316 509.794373,130.185349 
	C514.702454,123.696365 514.449280,117.406334 509.105652,110.646500 
	C506.795227,107.723740 503.322632,105.014717 505.930969,100.613274 
	C508.540710,96.209381 512.616638,97.186722 516.595398,98.046318 
	C516.880615,98.107956 517.223206,97.904327 517.935547,97.723282 
	C518.551147,95.781441 519.229248,93.642319 520.059021,91.024818 
	C517.824280,90.501411 515.957642,89.861450 514.043945,89.652214 
	C506.956268,88.877266 499.410797,92.921242 496.165833,99.198097 
	C492.838074,105.635025 494.906769,111.072067 499.452057,116.009003 
	C500.125854,116.740852 501.041748,117.488998 501.244843,118.368340 
	C501.768433,120.635490 502.937866,123.540962 502.020844,125.148125 
	C500.945862,127.032089 498.067841,128.352203 495.731079,128.912643 
	C493.644989,129.412964 491.230988,128.545898 488.379272,128.864441 
M394.741730,122.285622 
	C397.761475,111.841499 400.781219,101.397377 403.940948,90.469116 
	C400.607941,90.469116 398.019958,90.469116 394.948639,90.469116 
	C390.546173,105.518074 386.102173,120.708984 381.636871,135.972763 
	C390.174622,137.484741 390.174805,137.484802 392.328094,130.196091 
	C393.033386,127.808685 393.737518,125.420921 394.741730,122.285622 
M382.578278,75.044128 
	C384.105469,74.147339 385.632629,73.250542 388.382080,71.636017 
	C387.066223,76.798492 386.199158,80.200172 384.949799,85.101692 
	C387.684906,83.829742 390.080658,83.471802 390.422211,82.436333 
	C393.005676,74.603111 395.186188,66.636978 397.510925,58.648830 
	C392.703156,57.928585 392.703125,57.928574 391.007050,63.697731 
	C389.450867,68.990906 389.450897,68.990913 384.948120,67.398689 
	C385.700195,64.449501 386.455780,61.486614 387.211365,58.523735 
	C386.796997,58.140026 386.382660,57.756317 385.968323,57.372612 
	C384.565674,58.413509 382.352814,59.181465 381.894928,60.540634 
	C379.359650,68.066780 377.251526,75.736832 374.978851,83.419067 
	C378.291534,84.735191 380.316559,84.176826 380.960632,80.608734 
	C381.254303,78.981728 381.828552,77.405373 382.578278,75.044128 
M406.059601,83.011269 
	C408.676910,76.701126 401.600647,81.458092 401.155212,77.932159 
	C401.665741,75.604530 401.780212,72.309502 406.502930,72.749817 
	C407.316559,72.825668 408.330963,70.747818 409.743347,69.088173 
	C407.384583,68.576149 405.993774,68.274246 404.546539,67.960091 
	C404.714569,64.186081 405.601807,61.697109 410.074402,62.085579 
	C411.148193,62.178841 412.395905,60.269417 413.563629,59.281033 
	C413.293213,58.850170 413.022797,58.419312 412.752380,57.988449 
	C409.949585,57.988449 407.139496,57.873600 404.347870,58.050365 
	C403.362305,58.112770 401.773865,58.684677 401.559692,59.368294 
	C399.061676,67.341301 396.773743,75.380135 394.333374,83.732986 
	C398.707031,83.732986 402.168488,83.732986 406.059601,83.011269 
M375.879974,62.229286 
	C377.134735,61.299171 378.389465,60.369057 379.644226,59.438938 
	C379.394806,58.953545 379.145386,58.468147 378.895966,57.982754 
	C375.933441,57.982754 372.955963,57.807659 370.014984,58.059345 
	C368.621704,58.178581 367.298248,59.113602 365.943115,59.679039 
	C366.765961,60.906273 367.588806,62.133503 368.721771,63.823242 
	C366.977783,69.920609 365.044739,76.678917 363.081635,83.542473 
	C366.531494,84.502480 368.144165,83.859810 369.052002,80.640564 
	C370.790131,74.477013 373.036072,68.456657 375.879974,62.229286 
z"/>
<path fill="#FF8203" opacity="1.000000" stroke="none" 
	d="
M115.662292,150.195084 
	C116.487335,123.147575 117.287392,96.525032 117.979599,69.899673 
	C118.052589,67.092369 117.837845,64.174629 117.109138,61.483448 
	C116.568710,59.487560 115.019745,56.301563 113.846085,56.268467 
	C111.872726,56.212822 108.957771,57.745815 107.984421,59.478615 
	C103.522003,67.422791 98.919167,75.406090 95.641075,83.868958 
	C91.093086,95.610260 89.878159,108.059128 90.475449,120.693413 
	C90.709671,125.647568 92.805153,127.957161 97.690781,128.132782 
	C99.665222,128.203751 101.622421,128.754303 104.267448,129.201614 
	C103.612198,137.338364 102.962738,145.403259 102.288246,153.779053 
	C91.123940,153.779053 80.374992,153.779053 68.855415,153.779053 
	C68.276062,145.288391 67.640007,136.728943 67.179680,128.160080 
	C67.127930,127.196678 67.804497,125.798058 68.593857,125.249191 
	C74.132225,121.398170 75.580826,115.753670 75.752602,109.537216 
	C76.152962,95.048164 76.572487,80.558395 76.744614,66.066078 
	C76.763031,64.516327 75.197937,62.947769 74.367424,61.387936 
	C73.509697,62.902225 72.015305,64.369865 71.900352,65.938583 
	C71.279770,74.407455 70.998100,82.901245 70.607506,91.386810 
	C70.538574,92.884201 70.590652,94.391762 70.440094,95.879768 
	C70.180710,98.443367 69.723335,101.530983 66.367271,100.736183 
	C64.906807,100.390297 63.116318,97.504120 63.083488,95.741707 
	C62.937832,87.922897 63.361053,80.092781 63.610519,72.267761 
	C63.684818,69.937134 64.134827,67.580948 63.891308,65.291946 
	C63.747475,63.939976 62.581558,62.696751 61.875275,61.404621 
	C60.921120,62.684059 59.239319,63.905941 59.132809,65.252426 
	C58.515854,73.052025 58.256821,80.880386 57.908653,88.700447 
	C57.827179,90.530441 57.936417,92.369507 57.839333,94.198097 
	C57.683758,97.128372 58.204044,100.953156 53.834534,100.846893 
	C49.505775,100.741600 50.022915,96.980896 50.116699,94.022766 
	C50.412346,84.697212 50.915134,75.376228 51.046013,66.049393 
	C51.068031,64.480576 49.640480,62.891415 48.882698,61.311653 
	C47.965057,62.819347 46.306950,64.297295 46.244995,65.839363 
	C45.663177,80.321014 45.294895,94.812401 44.993595,109.303650 
	C44.859207,115.767143 46.694073,121.438942 52.288940,125.419037 
	C53.116837,126.007996 53.909897,127.221069 53.985569,128.201981 
	C54.635395,136.625656 55.116432,145.062378 55.736347,154.898941 
	C48.448769,154.898941 41.511395,155.015167 34.580830,154.848495 
	C31.260128,154.768631 30.202488,152.335815 30.031927,149.356506 
	C28.975922,130.910339 27.794971,112.470428 26.888563,94.016998 
	C26.523197,86.578552 26.782219,86.650093 19.547972,85.884224 
	C7.734639,84.633575 4.687300,83.823959 12.542618,71.694305 
	C29.181532,46.001610 50.124706,24.725962 75.695915,7.893250 
	C80.745995,4.568940 85.042015,4.432961 89.839233,7.985743 
	C96.232582,12.720605 102.794334,17.228088 109.913292,22.279997 
	C110.213638,19.357168 110.467728,16.846907 110.730431,14.337548 
	C111.045555,11.327447 112.706161,9.839307 115.741432,10.066733 
	C119.727020,10.365366 123.900887,10.130517 127.614326,11.314854 
	C129.728546,11.989145 132.140091,14.819671 132.593994,17.050323 
	C134.150497,24.699612 135.236847,32.486271 135.853363,40.271954 
	C136.348923,46.530476 138.547882,51.747581 142.270966,56.699032 
	C146.968964,62.947098 151.388535,69.422531 155.618332,75.999191 
	C159.307251,81.734871 157.777435,84.207626 151.098526,85.133484 
	C136.560883,87.148766 139.471710,84.127037 138.725403,98.318314 
	C137.938324,113.285316 136.925217,128.240738 135.946411,143.197006 
	C135.805679,145.347290 135.402634,147.495270 134.946838,149.606720 
	C134.190186,153.111832 132.317398,155.200378 128.327728,154.851746 
	C125.180420,154.576706 122.000656,154.587936 118.836548,154.615234 
	C115.966385,154.640015 114.826172,153.453140 115.662292,150.195084 
z"/>
<path fill="#FF8304" opacity="1.000000" stroke="none" 
	d="
M262.215149,56.961647 
	C266.784302,56.961643 270.886292,56.961643 276.074585,56.961643 
	C274.702881,59.515064 273.989746,61.294464 272.898743,62.800049 
	C265.865601,72.505821 258.679596,82.101746 251.732513,91.867996 
	C250.613785,93.440735 249.614975,95.849556 249.962784,97.592026 
	C252.107513,108.336655 254.654282,119.001038 257.412170,131.219803 
	C265.011200,105.629303 272.176056,81.500916 279.462769,56.962147 
	C284.480835,56.962147 289.462921,57.179314 294.416718,56.898335 
	C298.964081,56.640411 299.980469,58.296116 298.688202,62.483986 
	C295.355774,73.283600 292.227478,84.146286 289.031372,94.987839 
	C285.318390,107.582901 281.552551,120.163124 277.967346,132.794540 
	C277.165741,135.618805 275.946106,136.758118 272.838531,136.694336 
	C262.514954,136.482391 252.180191,136.446594 241.858475,136.700043 
	C237.959900,136.795792 236.605194,135.160065 236.038300,131.657196 
	C235.118256,125.972313 233.873230,120.340019 232.696732,114.334961 
	C226.935455,119.193184 225.600220,125.772987 224.010345,132.128571 
	C223.146744,135.580872 221.646820,137.189545 217.889435,136.769028 
	C214.763580,136.419189 211.567368,136.709717 208.402435,136.694458 
	C202.274582,136.664886 201.922363,136.194901 203.559357,130.457901 
	C204.121048,128.489349 204.623306,126.503853 204.817673,124.289497 
	C191.442154,138.797821 175.747910,140.556717 157.574127,133.885071 
	C159.089218,128.723801 160.316681,123.769997 162.133835,119.042877 
	C162.472946,118.160721 165.197708,117.793053 166.787430,117.872200 
	C170.999725,118.081909 175.399841,119.680328 179.348587,118.876358 
	C186.158676,117.489815 187.800858,111.371849 183.488037,105.937469 
	C181.108948,102.939667 178.374969,100.216492 176.081818,97.158882 
	C169.892731,88.906662 169.571930,80.947395 174.842697,72.056610 
	C183.579117,57.319885 203.528442,51.538261 218.199753,59.839710 
	C216.995499,63.995167 216.000244,68.358170 214.357971,72.462257 
	C213.931854,73.527138 211.456894,74.354820 209.966797,74.289673 
	C206.889099,74.155128 203.779953,72.681412 200.793243,72.954803 
	C194.715027,73.511162 192.024673,79.807274 195.484085,84.850235 
	C197.263672,87.444435 199.728241,89.567719 201.517151,92.156761 
	C204.585251,96.597145 207.366165,101.235931 210.530716,106.204430 
	C215.310760,90.227036 220.244781,73.734978 225.262436,56.963371 
	C230.683823,56.963371 236.001129,57.075100 241.311005,56.924595 
	C244.928406,56.822063 245.718826,58.362831 244.666870,61.534893 
	C242.552139,67.911751 240.496368,74.308159 239.228104,81.306152 
	C240.187424,80.174004 241.242310,79.108742 242.089737,77.898254 
	C246.003571,72.307762 250.108521,66.827728 253.640442,61.002213 
	C255.666122,57.661083 258.073212,56.364929 262.215149,56.961647 
z"/>
<path fill="#FF8303" opacity="1.000000" stroke="none" 
	d="
M351.225464,68.997681 
	C356.889709,88.581100 343.590637,113.356987 325.315155,117.416687 
	C321.318298,118.304543 317.010468,117.708733 312.921753,118.311165 
	C311.436859,118.529961 310.111481,120.183296 308.843170,121.326164 
	C308.410706,121.715828 308.350494,122.539070 308.162567,123.176682 
	C304.029694,137.200500 304.033417,137.116150 289.293030,136.668716 
	C285.326324,136.548325 284.436615,135.293137 285.586517,131.459808 
	C291.554291,111.564896 297.410889,91.634834 303.036682,71.641167 
	C303.825867,68.836533 303.294983,65.601982 303.077087,62.587994 
	C302.832520,59.204632 303.038086,56.770058 307.533783,56.897007 
	C315.687317,57.127243 323.854797,57.096107 332.011322,56.926846 
	C340.961670,56.741108 347.372772,60.416935 351.225464,68.997681 
M332.914276,82.156494 
	C332.951874,80.668633 333.521423,78.883163 332.896393,77.766006 
	C332.059296,76.269890 330.394958,74.462532 328.909088,74.287300 
	C326.750214,74.032700 322.855560,74.551476 322.438019,75.719116 
	C319.521179,83.876228 317.309753,92.285599 314.846100,100.704224 
	C323.045807,101.576965 325.894623,100.245895 328.943939,93.712860 
	C330.541656,90.289856 331.523865,86.579559 332.914276,82.156494 
z"/>
<path fill="#FF860A" opacity="1.000000" stroke="none" 
	d="
M426.949188,130.981628 
	C430.360565,119.250267 433.690582,107.925179 437.010315,96.597061 
	C439.036194,89.684059 439.029053,89.681969 447.518890,90.733597 
	C445.922180,96.613480 444.348450,102.408669 442.774750,108.203773 
	C450.976196,110.058296 451.156555,109.962166 453.339844,102.623573 
	C454.003601,100.392532 454.636230,98.152214 455.299316,95.920967 
	C457.234741,89.408691 457.839294,89.102844 465.758606,90.974556 
	C464.091461,96.840721 462.462341,102.702606 460.756592,108.542099 
	C458.658813,115.723709 456.493744,122.885651 454.363892,130.057938 
	C452.199341,137.347198 452.202606,137.348175 443.657898,136.043900 
	C445.444153,129.845917 447.209045,123.721924 448.972015,117.604721 
	C441.369843,115.403336 440.398926,115.898804 438.337585,122.896210 
	C437.632812,125.288582 436.945709,127.686172 436.242737,130.079071 
	C434.095795,137.387039 434.094269,137.386597 425.721252,136.050064 
	C426.109222,134.466110 426.486359,132.926361 426.949188,130.981628 
z"/>
<path fill="#FF8508" opacity="1.000000" stroke="none" 
	d="
M359.190247,96.140808 
	C359.767883,91.012260 362.352722,89.227737 366.997986,90.069931 
	C368.285461,90.303352 369.651306,90.091774 370.980865,90.108154 
	C378.923401,90.205994 383.691681,94.336693 383.895569,102.145050 
	C384.169617,112.637505 381.005219,122.174828 373.984650,130.105331 
	C366.986786,138.010239 357.631042,136.803558 347.530457,136.337097 
	C351.467773,122.767967 355.274200,109.649879 359.190247,96.140808 
M367.434113,99.963295 
	C364.655365,109.447090 361.876587,118.930878 358.804932,129.414352 
	C361.520905,128.701874 363.560944,128.581879 365.151520,127.674217 
	C370.663361,124.528870 376.537018,107.614456 374.347351,101.507126 
	C373.147278,98.159904 371.082520,96.720558 367.434113,99.963295 
z"/>
<path fill="#FF860B" opacity="1.000000" stroke="none" 
	d="
M468.012390,106.935974 
	C469.377197,102.245323 470.858795,97.997208 471.874542,93.640480 
	C472.540649,90.783325 473.936829,89.983887 476.731873,90.090965 
	C482.143219,90.298264 487.568115,90.151543 493.675018,90.151543 
	C492.915863,93.192245 492.370697,95.375809 491.815796,97.598480 
	C487.711029,97.940727 483.102814,97.126289 480.136932,98.963348 
	C477.890045,100.355080 477.737274,105.127777 476.528076,108.771217 
	C479.712555,108.974709 482.298706,109.139969 484.863770,109.303879 
	C484.973602,116.704613 484.973602,116.704613 474.345032,117.081245 
	C473.214783,120.718208 472.021301,124.558716 470.661957,128.932999 
	C474.766449,128.932999 478.211121,128.932999 481.656158,128.932999 
	C481.529785,136.228012 481.136902,136.635345 474.549896,136.639435 
	C469.786011,136.642395 465.022125,136.640015 459.373444,136.640015 
	C462.387787,126.316910 465.159576,116.824646 468.012390,106.935974 
z"/>
<path fill="#FF8407" opacity="1.000000" stroke="none" 
	d="
M417.648376,90.356857 
	C422.023407,90.214607 426.033295,90.214607 430.791016,90.214607 
	C429.883362,93.550697 429.299103,95.698112 428.604492,98.251236 
	C426.871490,97.925964 425.319275,97.159248 424.068390,97.499718 
	C421.537720,98.188530 418.439789,98.893852 416.982666,100.716881 
	C415.943909,102.016472 417.019897,105.191795 417.516510,107.449928 
	C417.742981,108.479774 418.795898,109.363113 419.564789,110.232582 
	C423.886505,115.119469 425.727783,120.500946 422.628082,126.705986 
	C419.402222,133.163605 414.217957,136.957291 406.882507,137.142334 
	C403.799713,137.220108 400.699860,136.621811 396.934845,136.267548 
	C397.867035,133.106125 398.583801,130.675232 399.312988,128.202164 
	C402.246399,128.495392 404.857361,129.115372 407.412750,128.937347 
	C412.784027,128.563171 415.265106,123.358910 412.432922,118.839149 
	C411.905670,117.997696 411.247345,117.236115 410.626587,116.455872 
	C402.004517,105.618675 404.417694,96.203568 417.648376,90.356857 
z"/>
<path fill="#FF8405" opacity="1.000000" stroke="none" 
	d="
M488.670471,128.573334 
	C491.230988,128.545898 493.644989,129.412964 495.731079,128.912643 
	C498.067841,128.352203 500.945862,127.032089 502.020844,125.148125 
	C502.937866,123.540962 501.768433,120.635490 501.244843,118.368340 
	C501.041748,117.488998 500.125854,116.740852 499.452057,116.009003 
	C494.906769,111.072067 492.838074,105.635025 496.165833,99.198097 
	C499.410797,92.921242 506.956268,88.877266 514.043945,89.652214 
	C515.957642,89.861450 517.824280,90.501411 520.059021,91.024818 
	C519.229248,93.642319 518.551147,95.781441 517.935547,97.723282 
	C517.223206,97.904327 516.880615,98.107956 516.595398,98.046318 
	C512.616638,97.186722 508.540710,96.209381 505.930969,100.613274 
	C503.322632,105.014717 506.795227,107.723740 509.105652,110.646500 
	C514.449280,117.406334 514.702454,123.696365 509.794373,130.185349 
	C504.643555,136.995316 495.169342,139.216507 486.557922,135.373779 
	C487.153320,133.245895 487.766296,131.055161 488.670471,128.573334 
z"/>
<path fill="#FF860A" opacity="1.000000" stroke="none" 
	d="
M394.591949,122.659470 
	C393.737518,125.420921 393.033386,127.808685 392.328094,130.196091 
	C390.174805,137.484802 390.174622,137.484741 381.636871,135.972763 
	C386.102173,120.708984 390.546173,105.518074 394.948639,90.469116 
	C398.019958,90.469116 400.607941,90.469116 403.940948,90.469116 
	C400.781219,101.397377 397.761475,111.841499 394.591949,122.659470 
z"/>
<path fill="#FF870D" opacity="1.000000" stroke="none" 
	d="
M382.426880,75.425079 
	C381.828552,77.405373 381.254303,78.981728 380.960632,80.608734 
	C380.316559,84.176826 378.291534,84.735191 374.978851,83.419067 
	C377.251526,75.736832 379.359650,68.066780 381.894928,60.540634 
	C382.352814,59.181465 384.565674,58.413509 385.968323,57.372612 
	C386.382660,57.756317 386.796997,58.140026 387.211365,58.523735 
	C386.455780,61.486614 385.700195,64.449501 384.948120,67.398689 
	C389.450897,68.990913 389.450867,68.990906 391.007050,63.697731 
	C392.703125,57.928574 392.703156,57.928585 397.510925,58.648830 
	C395.186188,66.636978 393.005676,74.603111 390.422211,82.436333 
	C390.080658,83.471802 387.684906,83.829742 384.949799,85.101692 
	C386.199158,80.200172 387.066223,76.798492 388.382080,71.636017 
	C385.632629,73.250542 384.105469,74.147339 382.426880,75.425079 
z"/>
<path fill="#FF8609" opacity="1.000000" stroke="none" 
	d="
M405.844788,83.372131 
	C402.168488,83.732986 398.707031,83.732986 394.333374,83.732986 
	C396.773743,75.380135 399.061676,67.341301 401.559692,59.368294 
	C401.773865,58.684677 403.362305,58.112770 404.347870,58.050365 
	C407.139496,57.873600 409.949585,57.988449 412.752380,57.988449 
	C413.022797,58.419312 413.293213,58.850170 413.563629,59.281033 
	C412.395905,60.269417 411.148193,62.178841 410.074402,62.085579 
	C405.601807,61.697109 404.714569,64.186081 404.546539,67.960091 
	C405.993774,68.274246 407.384583,68.576149 409.743347,69.088173 
	C408.330963,70.747818 407.316559,72.825668 406.502930,72.749817 
	C401.780212,72.309502 401.665741,75.604530 401.155212,77.932159 
	C401.600647,81.458092 408.676910,76.701126 405.844788,83.372131 
z"/>
<path fill="#FF860B" opacity="1.000000" stroke="none" 
	d="
M375.475647,62.303085 
	C373.036072,68.456657 370.790131,74.477013 369.052002,80.640564 
	C368.144165,83.859810 366.531494,84.502480 363.081635,83.542473 
	C365.044739,76.678917 366.977783,69.920609 368.721771,63.823242 
	C367.588806,62.133503 366.765961,60.906273 365.943115,59.679031 
	C367.298248,59.113602 368.621704,58.178581 370.014984,58.059345 
	C372.955963,57.807659 375.933441,57.982754 378.895966,57.982754 
	C379.145386,58.468147 379.394806,58.953545 379.644226,59.438938 
	C378.389465,60.369057 377.134735,61.299171 375.475647,62.303085 
z"/>
<path fill="#FFFBF8" opacity="1.000000" stroke="none" 
	d="
M332.849152,82.577744 
	C331.523865,86.579559 330.541656,90.289856 328.943939,93.712860 
	C325.894623,100.245895 323.045807,101.576965 314.846100,100.704224 
	C317.309753,92.285599 319.521179,83.876228 322.438019,75.719116 
	C322.855560,74.551476 326.750214,74.032700 328.909088,74.287300 
	C330.394958,74.462532 332.059296,76.269890 332.896393,77.766006 
	C333.521423,78.883163 332.951874,80.668633 332.849152,82.577744 
z"/>
<path fill="#FFFAF5" opacity="1.000000" stroke="none" 
	d="
M367.594452,99.591835 
	C371.082520,96.720558 373.147278,98.159904 374.347351,101.507126 
	C376.537018,107.614456 370.663361,124.528870 365.151520,127.674217 
	C363.560944,128.581879 361.520905,128.701874 358.804932,129.414352 
	C361.876587,118.930878 364.655365,109.447090 367.594452,99.591835 
z"/>
</svg>